<?xml version="1.0" encoding="UTF-8"?>
<svg version="1.1" viewBox="0 0 772.9 453.3" xmlns="http://www.w3.org/2000/svg" xmlns:cc="http://creativecommons.org/ns#" xmlns:dc="http://purl.org/dc/elements/1.1/" xmlns:rdf="http://www.w3.org/1999/02/22-rdf-syntax-ns#">
<title>OLM logo</title><desc>A Japanese animation studio founded in 1990</desc>
 <metadata>
  <rdf:RDF>
   <cc:Work rdf:about="">
    <dc:format>image/svg+xml</dc:format>
    <dc:type rdf:resource="http://purl.org/dc/dcmitype/StillImage"/>
    <dc:title/>
   </cc:Work>
  </rdf:RDF>
 </metadata>
 <g transform="translate(-121.3 455.4)">
  <path d="m574.6-79.76c-4.45-7.551-11.61-19.8-15.92-27.23-16.8-28.98-21.78-37-22.97-37-0.679 0-6.981 12.04-14 26.75-7.024 14.71-13.29 27.31-13.94 28-0.9228 0.9938-22.42 1.202-103.4 1l-102.2-0.2547 15.59-27.5c8.574-15.12 19.07-33.58 23.33-41s11.81-20.7 16.78-29.5c26.21-46.36 37.5-66.09 38.28-66.89 0.5025-0.515 3.52 0.2026 7.178 1.707 8.131 3.344 19.64 6.354 27.56 7.206 3.438 0.3698 6.25 0.8097 6.25 0.9775s-1.626 4.961-3.614 10.65c-8.573 24.55-27.65 80.67-28.62 84.2-0.8452 3.072-0.777 4.029 0.3378 4.735 0.7684 0.4865 15.39 0.8915 32.49 0.8999 28.36 0.014 31.23-0.1387 32.67-1.735 0.8673-0.9625 5.717-10.75 10.78-21.75s13.14-28.55 17.96-39 11.56-25.08 14.96-32.5c14.31-31.16 15-32.46 16.5-30.92 0.7644 0.7818 4.492 6.822 8.284 13.42 17.91 31.18 41.49 71.14 42.71 72.37 1.141 1.16 1.73 0.7724 3.794-2.5 2.527-4.007 19.71-33.49 32.28-55.37 3.948-6.875 9.314-16.21 11.92-20.75s5.094-8.25 5.518-8.25c0.4236 0 1.707 2.178 2.853 4.841 1.145 2.663 5.644 12.45 9.997 21.75 4.353 9.3 11.85 25.46 16.66 35.91 4.808 10.45 11.79 25.52 15.51 33.5s10.7 23.05 15.51 33.5c4.805 10.45 12.24 26.54 16.53 35.75l7.793 16.75h-62.66l-10.36-21.25c-5.7-11.69-11.7-24.28-13.34-27.97-1.775-4.016-3.587-6.734-4.499-6.75-0.9545-0.0168-6.179 8.131-13.93 21.72-6.822 11.96-15.4 26.93-19.07 33.25s-8.119 14.09-9.893 17.25c-4.928 12.12-8.121-2.004-11.67-8.021zm-133.4-167.5c0-1.37 4.616-15.3 19.98-60.26 2.63-7.7 4.585-14.34 4.344-14.75s-4.462-0.75-9.38-0.75c-6.491 0-8.938-0.3425-8.932-1.25 0.0134-1.831 4.306-18.39 10.53-40.61 3.004-10.73 5.462-20.1 5.462-20.82 0-3.366-3.264-0.5443-9.177 7.932-3.549 5.088-11.34 16-17.32 24.25-5.979 8.25-13.55 18.82-16.83 23.5s-7.815 10.98-10.09 14c-7.149 9.512-9.796 13.85-9.12 14.94 0.3815 0.6172 4.383 1.059 9.595 1.059 4.918 0 8.941 0.3016 8.941 0.6701 0 0.6599-11.56 21.39-19.28 34.58-2.173 3.712-4.537 6.75-5.253 6.75-3.026 0-17.67-11.04-26.61-20.05-10.24-10.33-15.48-18.11-21.38-31.7-5.305-12.24-7.552-22.09-8.202-35.96-1.431-30.52 9.055-57.51 30.78-79.24 25.17-25.17 59.34-35.33 95.43-28.37 19.01 3.665 37.44 13.61 52.02 28.09 28.84 28.63 38.61 68.86 25.97 106.9-4.361 13.13-7.996 20.23-15.33 29.95-18.8 24.93-46.67 40.18-76.91 42.09-7.896 0.4977-9.25 0.3587-9.25-0.9493z" style="fill:#547299"/>
  <g transform="scale(.9947 1.005)" style="stroke-width:2.131">
   <path d="m168.3-34.49q0 7.712-5.132 13.54-5.854 6.63-15.84 6.63-9.959 0-15.81-6.63-5.132-5.826-5.132-13.54 0-3.523 1.387-7.213 1.387-3.717 3.717-6.353 5.854-6.63 15.84-6.63t15.84 6.63q5.132 5.826 5.132 13.57zm-10.24 0q0-3.995-2.552-6.908-3.274-3.717-8.184-3.717-3.385 0-6.131 1.914-2.746 1.886-3.912 5.049-0.6658 1.803-0.6658 3.662 0 3.828 2.552 6.852 3.163 3.745 8.156 3.745 4.994 0 8.184-3.717 2.552-2.968 2.552-6.88z" style="fill:#547299;stroke-width:2.131"/>
   <path d="m199-15.68h-21.67v-37.87h9.848v29.63h11.82z" style="fill:#547299;stroke-width:2.131"/>
   <path d="m252.5-15.68h-9.848l-2.802-21.81-9.155 21.81h-3.912l-8.739-21.81-3.218 21.81h-9.793l6.436-37.87h9.71l7.685 20.2 8.128-20.2h9.793z" style="fill:#547299;stroke-width:2.131"/>
   <path d="m267.9-21.09-3.745 8.988h-4.494l2.386-8.988z" style="fill:#547299;stroke-width:2.131"/>
   <path d="m305.1-15.68h-9.848v-37.87h9.848z" style="fill:#547299;stroke-width:2.131"/>
   <path d="m342.1-15.68h-9.099v-13.04q0-3.412-0.7768-4.522-1.137-1.637-3.412-1.637-2.081 0-3.496 1.415-1.276 1.276-1.276 3.995v13.79h-9.099v-25.74h9.099v3.246q1.581-1.831 2.913-2.58 2.164-1.221 5.41-1.221 4.161 0 6.769 2.247 2.968 2.552 2.968 7.657z" style="fill:#547299;stroke-width:2.131"/>
   <path d="m370.5-16.23q-2.83 1.415-5.937 1.415-7.047 0-11.18-4.772-3.329-3.856-3.329-8.933 0-5.105 3.329-8.933 4.134-4.772 11.18-4.772 3.163 0 5.937 1.443v7.74q-2.414-1.692-4.716-1.692-2.719 0-4.494 1.748t-1.776 4.466q0 2.719 1.776 4.466 1.776 1.748 4.494 1.748 2.275 0 4.716-1.665z" style="fill:#547299;stroke-width:2.131"/>
   <path d="m385.2-18.56q0 1.387-0.971 2.358-0.971 0.971-2.358 0.971-1.443 0-2.441-0.971-0.971-0.971-0.971-2.358 0-1.387 0.971-2.33 0.9987-0.971 2.441-0.971 1.387 0 2.358 0.971 0.971 0.9432 0.971 2.33z" style="fill:#547299;stroke-width:2.131"/>
  </g>
  <g transform="scale(1.002 .9984)" style="stroke-width:2.09">
   <path d="m466.8-34.24q0 7.567-5.035 13.28-5.743 6.505-15.54 6.505-9.772 0-15.51-6.505-5.035-5.716-5.035-13.28 0-3.457 1.361-7.077 1.361-3.647 3.647-6.233 5.743-6.505 15.54-6.505 9.799 0 15.54 6.505 5.035 5.716 5.035 13.31zm-10.04 0q0-3.919-2.504-6.777-3.212-3.647-8.03-3.647-3.321 0-6.015 1.878-2.695 1.851-3.838 4.954-0.6532 1.769-0.6532 3.593 0 3.756 2.504 6.723 3.103 3.675 8.002 3.675t8.03-3.647q2.504-2.912 2.504-6.75z" style="fill:#547299;stroke-width:2.09"/>
   <path d="m496.9-15.79h-21.26v-37.15h9.663v29.07h11.6z" style="fill:#547299;stroke-width:2.09"/>
   <path d="m549.4-15.79h-9.663l-2.749-21.39-8.982 21.39h-3.838l-8.574-21.39-3.157 21.39h-9.608l6.315-37.15h9.527l7.54 19.82 7.975-19.82h9.608z" style="fill:#547299;stroke-width:2.09"/>
   <path d="m608.9-34.38q0 5.798-3.511 10.75-3.484 4.927-8.928 6.832-2.885 1.007-5.879 1.007h-14.26v-37.15h14.26q5.226 0 9.69 2.912 4.382 2.831 6.723 7.567 1.905 3.919 1.905 8.084zm-10.04 0q0-3.838-2.15-6.696-2.858-3.783-8.519-3.783h-2.205v20.99h2.205q5.689 0 8.519-3.783 2.15-2.885 2.15-6.723z" style="fill:#547299;stroke-width:2.09"/>
   <path d="m626.4-50.76q0 2.123-1.47 3.593-1.443 1.443-3.566 1.443-2.096 0-3.566-1.47-1.443-1.47-1.443-3.566 0-2.096 1.443-3.538 1.47-1.47 3.566-1.47t3.566 1.47q1.47 1.443 1.47 3.538zm-0.5716 34.98h-8.928v-25.26h8.928z" style="fill:#547299;stroke-width:2.09"/>
   <path d="m662.9-17.53q0 3.321-0.4627 5.362-0.7349 3.266-3.811 5.852-3.892 3.266-10.34 3.266-6.75 0-10.75-3.566-2.667-2.368-3.402-4.954-0.0817-0.2722-0.2178-1.143h10.04q0.4355 1.252 1.17 1.796 1.198 0.8982 3.048 0.8982 3.103 0 4.763-2.205 1.034-1.388 1.034-3.974v-2.395q-1.606 1.47-2.695 2.069-2.259 1.252-5.335 1.252-3.865 0-6.914-1.987-3.13-2.041-4.491-5.58-0.9254-2.395-0.9254-5.199 0-6.206 3.947-10.1 3.675-3.62 8.846-3.62 2.749 0 4.899 1.116 1.279 0.6805 2.667 2.232v-2.64h8.928zm-8.492-10.97q0-2.422-1.66-4.164-1.66-1.742-4.083-1.742-2.695 0-4.409 2.069-1.361 1.66-1.361 3.838 0 2.422 1.66 4.164 1.688 1.715 4.11 1.715 2.395 0 4.056-1.715 1.688-1.742 1.688-4.164z" style="fill:#547299;stroke-width:2.09"/>
   <path d="m681.1-50.76q0 2.123-1.47 3.593-1.443 1.443-3.566 1.443-2.096 0-3.566-1.47-1.443-1.47-1.443-3.566 0-2.096 1.443-3.538 1.47-1.47 3.566-1.47 2.096 0 3.566 1.47 1.47 1.443 1.47 3.538zm-0.5716 34.98h-8.928v-25.26h8.928z" style="fill:#547299;stroke-width:2.09"/>
   <path d="m704.4-33.7h-5.09v17.91h-8.928v-17.91h-2.94v-7.349h2.94v-7.594h8.928v7.594h5.09z" style="fill:#547299;stroke-width:2.09"/>
   <path d="m738.9-15.79h-8.928v-2.804q-1.279 1.606-2.586 2.341-2.286 1.279-5.199 1.279-4.709 0-8.383-3.239-4.382-3.865-4.382-10.23 0-6.478 4.491-10.34 3.566-3.076 8.193-3.076 2.695 0 5.063 1.143 1.361 0.6532 2.804 2.15v-2.477h8.928zm-8.656-12.63q0-2.395-1.688-4.056-1.688-1.688-4.083-1.688-2.667 0-4.382 2.014-1.388 1.633-1.388 3.729 0 2.096 1.388 3.729 1.688 2.014 4.382 2.014 2.422 0 4.083-1.66 1.688-1.66 1.688-4.083z" style="fill:#547299;stroke-width:2.09"/>
   <path d="m756.6-15.79h-8.928v-40.88h8.928z" style="fill:#547299;stroke-width:2.09"/>
   <path d="m772.5-21.09-3.675 8.819h-4.409l2.341-8.819z" style="fill:#547299;stroke-width:2.09"/>
   <path d="m809-15.79h-9.663v-37.15h9.663z" style="fill:#547299;stroke-width:2.09"/>
   <path d="m845.3-15.79h-8.928v-12.79q0-3.348-0.7621-4.437-1.116-1.606-3.348-1.606-2.041 0-3.43 1.388-1.252 1.252-1.252 3.919v13.53h-8.928v-25.26h8.928v3.185q1.551-1.796 2.858-2.531 2.123-1.198 5.308-1.198 4.083 0 6.641 2.205 2.912 2.504 2.912 7.512z" style="fill:#547299;stroke-width:2.09"/>
   <path d="m873.1-16.33q-2.776 1.388-5.825 1.388-6.914 0-10.97-4.682-3.266-3.783-3.266-8.764 0-5.008 3.266-8.764 4.056-4.682 10.97-4.682 3.103 0 5.825 1.415v7.594q-2.368-1.66-4.627-1.66-2.667 0-4.409 1.715-1.742 1.715-1.742 4.382t1.742 4.382q1.742 1.715 4.409 1.715 2.232 0 4.627-1.633z" style="fill:#547299;stroke-width:2.09"/>
   <path d="m887.6-18.62q0 1.361-0.9526 2.314t-2.314 0.9527q-1.415 0-2.395-0.9527-0.9526-0.9527-0.9526-2.314 0-1.361 0.9526-2.286 0.9799-0.9527 2.395-0.9527 1.361 0 2.314 0.9527 0.9526 0.9254 0.9526 2.286z" style="fill:#547299;stroke-width:2.09"/>
  </g>
 </g>
</svg>
